<?xml version="1.0" encoding="iso-8859-1"?>
<!-- Generator: Adobe Illustrator 19.0.0, SVG Export Plug-In . SVG Version: 6.00 Build 0)  -->
<svg version="1.1" id="Capa_1" xmlns="http://www.w3.org/2000/svg" xmlns:xlink="http://www.w3.org/1999/xlink" x="0px" y="0px"
	 viewBox="0 0 512 512" style="enable-background:new 0 0 512 512;" xml:space="preserve">
<path style="fill:#744EAA;" d="M82.776,56.889c42.667,0,71.111,28.444,113.778,85.333S309.719,244.495,367.22,256
	c71.111,14.222,128,71.111,128,156.444c0,69.661-54.699,99.556-128,99.556c-71.111,0-128-42.667-199.111-113.778
	s-142.222-199.111-142.222-256S40.109,56.889,82.776,56.889"/>
<path style="fill:#77B255;" d="M47.427,0c17.75,0,17.75,17.75,17.75,35.484c0,25.088,17.735,16.056,35.484,16.056
	c17.735,0,53.219,33.792,53.219,33.792h-53.219c-17.75,0,0,37.176-17.75,37.176c-17.735,0-17.735-16.896-35.484-16.896
	s-21.547,50.831-21.547,50.831S3.069,97.379,29.678,70.77C47.427,53.021,11.943,0,47.427,0"/>
<g>
</g>
<g>
</g>
<g>
</g>
<g>
</g>
<g>
</g>
<g>
</g>
<g>
</g>
<g>
</g>
<g>
</g>
<g>
</g>
<g>
</g>
<g>
</g>
<g>
</g>
<g>
</g>
<g>
</g>
</svg>
