<?xml version="1.0" encoding="iso-8859-1"?>
<!-- Generator: Adobe Illustrator 19.0.0, SVG Export Plug-In . SVG Version: 6.00 Build 0)  -->
<svg version="1.1" id="Capa_1" xmlns="http://www.w3.org/2000/svg" xmlns:xlink="http://www.w3.org/1999/xlink" x="0px" y="0px"
	 viewBox="0 0 512 512" style="enable-background:new 0 0 512 512;" xml:space="preserve">
<path style="fill:#F7DECE;" d="M56.9,327.1C0,327.1,0,384,0,384v128h113.8V384C113.8,384,113.8,327.1,56.9,327.1z"/>
<path style="fill:#DD2E44;" d="M56.9,270.2c-42.7,0-42.7,90.2-42.7,113.8s19.1,42.7,42.7,42.7s42.7-19.1,42.7-42.7
	S99.6,270.2,56.9,270.2z"/>
<path style="fill:#F7DECE;" d="M312.9,327.1C256,327.1,256,384,256,384v128h113.8V384C369.8,384,369.8,327.1,312.9,327.1z"/>
<path style="fill:#DD2E44;" d="M312.9,270.2c-42.7,0-42.7,90.2-42.7,113.8s19.1,42.7,42.7,42.7s42.7-19.1,42.7-42.7
	S355.6,270.2,312.9,270.2z"/>
<path style="fill:#F7DECE;" d="M440.9,398.2c-56.9,0-56.9,56.9-56.9,56.9V512h113.8v-56.9C497.8,455.1,497.8,398.2,440.9,398.2z"/>
<path style="fill:#DD2E44;" d="M440.9,497.8c23.6,0,42.7-19.1,42.7-42.7c0-8,0-23.8-1.7-41.2c-3.3-33.5-12.9-72.6-41-72.6
	s-37.7,39.2-41,72.6c-1.7,17.3-1.7,33.1-1.7,41.2C398.2,478.7,417.3,497.8,440.9,497.8z"/>
<path style="fill:#F7DECE;" d="M184.9,284.4c-56.9,0-56.9,56.9-56.9,56.9V512h113.8V341.3C241.8,341.3,241.8,284.4,184.9,284.4z"/>
<path style="fill:#DD2E44;" d="M227.6,341.3c0-23.6,0-113.8-42.7-113.8s-42.7,90.2-42.7,113.8s19.1,42.7,42.7,42.7
	S227.6,364.9,227.6,341.3"/>
<path style="fill:#8899A6;" d="M412.4,0L384,28.4c-28.4,28.4,0,56.9,0,56.9L270.2,199.1c-3.6,21.5,5.5,31.3,28.4,28.4l113.8-113.8
	c0,0,28.4,28.4,56.9,0L512,71.1V0H412.4z"/>
<path style="fill:#DD2E44;" d="M270.2,199.1c0,0-28.4,28.4-85.3,28.4v56.9h28.4c0,0,28.5,0,85.3-56.9L270.2,199.1z"/>
<g>
</g>
<g>
</g>
<g>
</g>
<g>
</g>
<g>
</g>
<g>
</g>
<g>
</g>
<g>
</g>
<g>
</g>
<g>
</g>
<g>
</g>
<g>
</g>
<g>
</g>
<g>
</g>
<g>
</g>
</svg>
